<svg version="1.1" id="svg227" inkscape:version="1.1.1 (c3084ef, 2021-09-22)" sodipodi:docname="Mirai2.svg" xmlns:inkscape="http://www.inkscape.org/namespaces/inkscape" xmlns:sodipodi="http://sodipodi.sourceforge.net/DTD/sodipodi-0.dtd" xmlns="http://www.w3.org/2000/svg" xmlns:svg="http://www.w3.org/2000/svg" viewBox="85.02 125.75 37.86 37.86">
  <sodipodi:namedview id="namedview229" pagecolor="#ffffff" bordercolor="#666666" borderopacity="1.0" inkscape:pageshadow="2" inkscape:pageopacity="0.0" inkscape:pagecheckerboard="0" inkscape:document-units="mm" showgrid="false" inkscape:zoom="0.62359708" inkscape:cx="396.89089" inkscape:cy="561.25984" inkscape:window-width="1312" inkscape:window-height="922" inkscape:window-x="174" inkscape:window-y="32" inkscape:window-maximized="0" inkscape:current-layer="layer1"/>
  <defs id="defs224"/>
  <g inkscape:label="Layer 1" inkscape:groupmode="layer" id="layer1">
    <polygon class="fil1" points="1051.38,708.24 1069.55,693.5 1069.55,689.62 1051.38,689.62 1051.38,684.49 1069.55,684.49 1069.55,677.11 1052.91,677.11 1052.91,672.04 1069.55,672.04 1069.55,664.97 1075.86,664.97 1075.86,672.04 1092.05,672.04 1092.05,677.11 1075.86,677.11 1075.86,684.49 1094.21,684.49 1094.21,689.62 1075.86,689.62 1075.86,693.25 1094.21,708.07 1094.21,715.26 1075.86,700.44 1075.86,715.26 1069.55,715.26 1069.55,700.63 1051.38,715.26 " id="polygon95" style="clip-rule:evenodd;fill:#2b0000;fill-rule:nonzero;stroke:#280b0b;image-rendering:optimizeQuality;shape-rendering:geometricPrecision;text-rendering:geometricPrecision" transform="matrix(0.26458333,0,0,0.26458333,-186.2106,-37.9406)"/>
    <polygon class="fil1" points="1123.75,664.97 1117.45,664.97 1117.45,672.04 1100.81,672.04 1100.81,677.11 1117.45,677.11 1117.45,684.49 1113.63,684.49 1106.42,678.29 1100.81,678.29 1100.81,679.26 1106.94,684.49 1099.27,684.49 1099.27,689.62 1117.45,689.62 1117.45,693.5 1099.27,708.24 1099.27,715.26 1117.45,700.63 1117.45,715.26 1123.75,715.26 1123.75,700.44 1142.1,715.26 1142.1,708.07 1123.75,693.25 1123.75,689.62 1142.1,689.62 1142.1,684.49 1133.8,684.49 1139.94,679.26 1139.94,678.29 1134.32,678.29 1127.11,684.49 1123.75,684.49 1123.75,677.11 1139.94,677.11 1139.94,672.04 1123.75,672.04 " id="polygon97" style="clip-rule:evenodd;fill:#2b0000;fill-rule:nonzero;stroke:#280b0b;image-rendering:optimizeQuality;shape-rendering:geometricPrecision;text-rendering:geometricPrecision" transform="matrix(0.26458333,0,0,0.26458333,-186.2106,-37.9406)"/>
    <path class="fil1" d="m 103.95,160.34609 c 3.70681,0 7.112,-1.28852 9.79488,-3.43959 l 1.83091,1.83357 c -3.15648,2.61143 -7.20725,4.18306 -11.62579,4.18306 -5.037673,0 -9.599083,-2.03994 -12.898443,-5.34194 -3.302,-3.302 -5.34458,-7.86342 -5.34458,-12.89844 0,-4.41854 1.57162,-8.47196 4.18571,-11.62843 l 1.83091,1.83356 c -2.15106,2.68287 -3.43693,6.08806 -3.43693,9.79487 0,4.32594 1.75154,8.24177 4.58787,11.07546 2.83369,2.83369 6.74952,4.58788 11.075463,4.58788 z m 12.22375,-5.87111 c 2.15371,-2.68023 3.43958,-6.08806 3.43958,-9.79223 0,-4.32593 -1.75418,-8.24177 -4.58787,-11.0781 -2.83369,-2.83369 -6.74952,-4.58788 -11.07546,-4.58788 -3.70681,0 -7.112003,1.28852 -9.794873,3.43959 l -1.83357,-1.83092 c 3.15913,-2.61408 7.2099,-4.18571 11.628443,-4.18571 5.03767,0 9.59644,2.04259 12.89844,5.34194 3.302,3.302 5.34458,7.86342 5.34458,12.90108 0,4.41854 -1.57162,8.46932 -4.18571,11.62579 z" id="path99" style="clip-rule:evenodd;fill:#2b0000;fill-rule:nonzero;stroke:#280b0b;stroke-width:0.264583;image-rendering:optimizeQuality;shape-rendering:geometricPrecision;text-rendering:geometricPrecision"/>
    <rect class="fil2" transform="rotate(-45)" width="0.79806203" height="2.5905507" id="rect101" style="clip-rule:evenodd;fill:#2b0000;fill-rule:evenodd;stroke:#280b0b;stroke-width:0.113048;image-rendering:optimizeQuality;shape-rendering:geometricPrecision;text-rendering:geometricPrecision" x="-28.281734" y="157.64677"/>
    <polygon class="fil2" points="1055.71,647.96 1048.78,641.04 1047.72,642.11 1054.64,649.03 " id="polygon103" style="clip-rule:evenodd;fill:#2b0000;fill-rule:evenodd;stroke:#280b0b;image-rendering:optimizeQuality;shape-rendering:geometricPrecision;text-rendering:geometricPrecision" transform="matrix(0.26458333,0,0,0.26458333,-186.2106,-37.9406)"/>
    <rect class="fil2" transform="rotate(135)" width="0.79806203" height="2.5905507" id="rect105" style="clip-rule:evenodd;fill:#2b0000;fill-rule:evenodd;stroke:#280b0b;stroke-width:0.113048;image-rendering:optimizeQuality;shape-rendering:geometricPrecision;text-rendering:geometricPrecision" x="29.323635" y="-193.96985"/>
    <polygon class="fil2" points="1137.63,732.49 1144.55,739.41 1145.62,738.35 1138.7,731.42 " id="polygon107" style="clip-rule:evenodd;fill:#2b0000;fill-rule:evenodd;stroke:#280b0b;image-rendering:optimizeQuality;shape-rendering:geometricPrecision;text-rendering:geometricPrecision" transform="matrix(0.26458333,0,0,0.26458333,-186.2106,-37.9406)"/>
    <path class="fil1" d="m 103.95,158.69773 c 3.87085,0 7.37394,-1.56898 9.90865,-4.10633 2.53735,-2.53471 4.10633,-6.04044 4.10633,-9.90865 0,-3.87085 -1.56898,-7.37393 -4.10633,-9.91129 -2.53471,-2.53471 -6.0378,-4.10369 -9.90865,-4.10369 -3.87085,0 -7.373943,1.56898 -9.911293,4.10369 -2.53471,2.53736 -4.10369,6.04044 -4.10369,9.91129 0,3.86821 1.56898,7.37394 4.10369,9.90865 2.53735,2.53735 6.040443,4.10633 9.911293,4.10633 z m 10.49338,-3.5216 c -2.68553,2.68552 -6.39498,4.34446 -10.49338,4.34446 -4.098403,0 -7.807853,-1.65894 -10.493373,-4.34446 -2.68553,-2.68552 -4.34711,-6.39763 -4.34711,-10.49338 0,-4.09839 1.66158,-7.80785 4.34711,-10.49337 2.68552,-2.68552 6.39497,-4.34711 10.493373,-4.34711 4.0984,0 7.80785,1.66159 10.49338,4.34711 2.68552,2.68552 4.3471,6.39498 4.3471,10.49337 0,4.09575 -1.66158,7.80786 -4.3471,10.49338 z" id="path109" style="clip-rule:evenodd;fill:#2b0000;fill-rule:nonzero;stroke:#280b0b;stroke-width:0.264583;image-rendering:optimizeQuality;shape-rendering:geometricPrecision;text-rendering:geometricPrecision"/>
  </g>
</svg>